<?xml version="1.0" ?><svg viewBox="0 0 64 64" xmlns="http://www.w3.org/2000/svg"><defs><style>.cls-1{fill:none;}.cls-2{fill:#010101;}</style></defs><title/><g data-name="Layer 3" id="Layer_3"><rect class="cls-1" height="64" width="64"/></g><g data-name="Design Convert" id="Design_Convert"><path class="cls-2" d="M49,56H15a3,3,0,0,1-3-3V25a3,3,0,0,1,3-3H49a3,3,0,0,1,3,3V53A3,3,0,0,1,49,56ZM15,24a1,1,0,0,0-1,1V53a1,1,0,0,0,1,1H49a1,1,0,0,0,1-1V25a1,1,0,0,0-1-1Z"/><path class="cls-2" d="M32,47a5,5,0,0,1-3-9V34a3,3,0,0,1,6,0v4a5,5,0,0,1-3,9Zm0-14a1,1,0,0,0-1,1v4.55a1,1,0,0,1-.5.87A3,3,0,0,0,29,42a3,3,0,0,0,6,0,3,3,0,0,0-1.5-2.58,1,1,0,0,1-.5-.87V34A1,1,0,0,0,32,33Z"/><path class="cls-2" d="M42,24H22a1,1,0,0,1-1-1V18a11,11,0,0,1,22,0v5A1,1,0,0,1,42,24ZM23,22H41V18a9,9,0,0,0-18,0Z"/></g></svg>